<svg
                xmlns="http://www.w3.org/2000/svg"
                fill="none"
                viewBox="0 0 24 24"
                stroke-width="1.5"
                stroke="currentColor"
                class="size-6"
              >
                <path
                  stroke-linecap="round"
                  stroke-linejoin="round"
                  d="M7.5 8.25h9m-9 3H12m-9.75 1.51c0 1.6 1.123 2.994 2.707 3.227 1.129.166 2.27.293 3.423.379.35.026.67.21.865.501L12 21l2.755-4.133a1.14 1.14 0 0 1 .865-.501 48.172 48.172 0 0 0 3.423-.379c1.584-.233 2.707-1.626 2.707-3.228V6.741c0-1.602-1.123-2.995-2.707-3.228A48.172 48.172 0 0 0 15.01 3.134a1.14 1.14 0 0 0-.865-.501L12 7.5 9.245 3.367a1.14 1.14 0 0 0-.865.501c-1.153.086-2.294.213-3.423.379C2.873 3.746 1.75 5.14 1.75 6.742v5.518Z"
                />
              </svg>